HIERARCHY
ROOT hip
{
  OFFSET 0 0 0
  CHANNELS 6 Xposition Yposition Zposition Zrotation Yrotation Xrotation
  JOINT abdomen
  {
    OFFSET 0 20.6881 -0.73152
    CHANNELS 3 Zrotation Xrotation Yrotation
    JOINT chest
    {
      OFFSET 0 11.7043 -0.48768
      CHANNELS 3 Zrotation Xrotation Yrotation
      JOINT neck
      {
        OFFSET 0 22.1894 -2.19456
        CHANNELS 3 Zrotation Xrotation Yrotation
        JOINT head
        {
          OFFSET -0.24384 7.07133 1.2192
          CHANNELS 3 Zrotation Xrotation Yrotation
          JOINT leftEye
          {
            OFFSET 4.14528 8.04674 8.04672
            CHANNELS 3 Zrotation Xrotation Yrotation
            End Site
            {
              OFFSET 1 0 0
            }
          }
          JOINT rightEye
          {
            OFFSET -3.6576 8.04674 8.04672
            CHANNELS 3 Zrotation Xrotation Yrotation
            End Site
            {
              OFFSET 1 0 0
            }
          }
        }
      }
      JOINT rCollar
      {
        OFFSET -2.68224 19.2634 -4.8768
        CHANNELS 3 Zrotation Xrotation Yrotation
        JOINT rShldr
        {
          OFFSET -8.77824 -1.95073 1.46304
          CHANNELS 3 Zrotation Xrotation Yrotation
          JOINT rForeArm
          {
            OFFSET -28.1742 -1.7115 0.48768
            CHANNELS 3 Zrotation Xrotation Yrotation
            JOINT rHand
            {
              OFFSET -22.5879 0.773209 7.07136
              CHANNELS 3 Zrotation Xrotation Yrotation
              JOINT rThumb1
              {
                OFFSET -1.2192 -0.487915 3.41376
                CHANNELS 3 Zrotation Xrotation Yrotation
                JOINT rThumb2
                {
                  OFFSET -3.37035 -0.52449 3.41376
                  CHANNELS 3 Zrotation Xrotation Yrotation
                  End Site
                  {
                    OFFSET -1.78271 -1.18214 1.43049
                  }
                }
              }
              JOINT rIndex1
              {
                OFFSET -7.75947 0.938293 5.60832
                CHANNELS 3 Zrotation Xrotation Yrotation
                JOINT rIndex2
                {
                  OFFSET -2.54057 -0.884171 1.56538
                  CHANNELS 3 Zrotation Xrotation Yrotation
                  End Site
                  {
                    OFFSET -1.62519 -0.234802 1.16502
                  }
                }
              }
              JOINT rMid1
              {
                OFFSET -8.24714 1.18213 3.41376
                CHANNELS 3 Zrotation Xrotation Yrotation
                JOINT rMid2
                {
                  OFFSET -3.10165 -0.590103 1.0647
                  CHANNELS 3 Zrotation Xrotation Yrotation
                  End Site
                  {
                    OFFSET -2.48547 -0.328903 0.83742
                  }
                }
              }
              JOINT rRing1
              {
                OFFSET -8.82822 0.546677 1.51678
                CHANNELS 3 Zrotation Xrotation Yrotation
                JOINT rRing2
                {
                  OFFSET -2.60934 -0.819778 -0.0198488
                  CHANNELS 3 Zrotation Xrotation Yrotation
                  End Site
                  {
                    OFFSET -2.33842 -0.294052 0.168128
                  }
                }
              }
              JOINT rPinky1
              {
                OFFSET -8.27202 -0.0477905 -0.4584
                CHANNELS 3 Zrotation Xrotation Yrotation
                JOINT rPinky2
                {
                  OFFSET -1.82734 -0.647385 -0.700984
                  CHANNELS 3 Zrotation Xrotation Yrotation
                  End Site
                  {
                    OFFSET -1.69225 -0.51767 -0.607171
                  }
                }
              }
            }
          }
        }
      }
      JOINT lCollar
      {
        OFFSET 2.68224 19.2634 -4.8768
        CHANNELS 3 Zrotation Xrotation Yrotation
        JOINT lShldr
        {
          OFFSET 8.77824 -1.95073 1.46304
          CHANNELS 3 Zrotation Xrotation Yrotation
          JOINT lForeArm
          {
            OFFSET 28.1742 -1.7115 0.48768
            CHANNELS 3 Zrotation Xrotation Yrotation
            JOINT lHand
            {
              OFFSET 22.5879 0.773209 7.07136
              CHANNELS 3 Zrotation Xrotation Yrotation
              JOINT lThumb1
              {
                OFFSET 1.2192 -0.487915 3.41376
                CHANNELS 3 Zrotation Xrotation Yrotation
                JOINT lThumb2
                {
                  OFFSET 3.37035 -0.52449 3.41376
                  CHANNELS 3 Zrotation Xrotation Yrotation
                  End Site
                  {
                    OFFSET 1.78271 -1.18214 1.43049
                  }
                }
              }
              JOINT lIndex1
              {
                OFFSET 7.75947 0.938293 5.60832
                CHANNELS 3 Zrotation Xrotation Yrotation
                JOINT lIndex2
                {
                  OFFSET 2.54057 -0.884171 1.56538
                  CHANNELS 3 Zrotation Xrotation Yrotation
                  End Site
                  {
                    OFFSET 1.62519 -0.234802 1.16502
                  }
                }
              }
              JOINT lMid1
              {
                OFFSET 8.24714 1.18213 3.41376
                CHANNELS 3 Zrotation Xrotation Yrotation
                JOINT lMid2
                {
                  OFFSET 3.10165 -0.590103 1.0647
                  CHANNELS 3 Zrotation Xrotation Yrotation
                  End Site
                  {
                    OFFSET 2.48547 -0.328903 0.83742
                  }
                }
              }
              JOINT lRing1
              {
                OFFSET 8.82822 0.546677 1.51678
                CHANNELS 3 Zrotation Xrotation Yrotation
                JOINT lRing2
                {
                  OFFSET 2.60934 -0.819778 -0.0198488
                  CHANNELS 3 Zrotation Xrotation Yrotation
                  End Site
                  {
                    OFFSET 2.33842 -0.294052 0.168128
                  }
                }
              }
              JOINT lPinky1
              {
                OFFSET 8.27202 -0.0477905 -0.4584
                CHANNELS 3 Zrotation Xrotation Yrotation
                JOINT lPinky2
                {
                  OFFSET 1.82734 -0.647385 -0.700984
                  CHANNELS 3 Zrotation Xrotation Yrotation
                  End Site
                  {
                    OFFSET 1.69225 -0.51767 -0.607171
                  }
                }
              }
            }
          }
        }
      }
    }
  }
  JOINT rButtock
  {
    OFFSET -8.77824 4.35084 1.2192
    CHANNELS 3 Zrotation Xrotation Yrotation
    JOINT rThigh
    {
      OFFSET 0 -1.70687 -2.19456
      CHANNELS 3 Zrotation Xrotation Yrotation
      JOINT rShin
      {
        OFFSET 0 -36.8199 0.73152
        CHANNELS 3 Zrotation Xrotation Yrotation
        JOINT rFoot
        {
          OFFSET 0.73152 -45.1104 -5.12064
          CHANNELS 3 Zrotation Xrotation Yrotation
          End Site
          {
            OFFSET -1.1221 -3.69964 12.103
          }
        }
      }
    }
  }
  JOINT lButtock
  {
    OFFSET 8.77824 4.35084 1.2192
    CHANNELS 3 Zrotation Xrotation Yrotation
    JOINT lThigh
    {
      OFFSET 0 -1.70687 -2.19456
      CHANNELS 3 Zrotation Xrotation Yrotation
      JOINT lShin
      {
        OFFSET 0 -36.8199 0.73152
        CHANNELS 3 Zrotation Xrotation Yrotation
        JOINT lFoot
        {
          OFFSET -0.73152 -45.1104 -5.12064
          CHANNELS 3 Zrotation Xrotation Yrotation
          End Site
          {
            OFFSET 1.1221 -3.69964 12.103
          }
        }
      }
    }
  }
}
MOTION
Frames:	7
Frame Time:	0.00833333
0.0 0.0 0.0 0.0 0.0 0.0 0.0 0.0 0.0 0.0 0.0 0.0 0.0 0.0 0.0 0.0 0.0 0.0 0.0 0.0 0.0 0.0 0.0 0.0 0.0 0.0 0.0 0.0 0.0 0.0 0.0 0.0 0.0 0.0 0.0 0.0 0.0 0.0 0.0 0.0 0.0 0.0 0.0 0.0 0.0 0.0 0.0 0.0 0.0 0.0 0.0 0.0 0.0 0.0 0.0 0.0 0.0 0.0 0.0 0.0 0.0 0.0 0.0 0.0 0.0 0.0 0.0 0.0 0.0 0.0 0.0 0.0 0.0 0.0 0.0 0.0 0.0 0.0 0.0 0.0 0.0 0.0 0.0 0.0 0.0 0.0 0.0 0.0 0.0 0.0 0.0 0.0 0.0 0.0 0.0 0.0 0.0 0.0 0.0 0.0 0.0 0.0 0.0 0.0 0.0 0.0 0.0 0.0 0.0 0.0 0.0 0.0 0.0 0.0 0.0 0.0 0.0 0.0 0.0 0.0 0.0 0.0 0.0 0.0 0.0 0.0 0.0 0.0 0.0 0.0 0.0 0.0
-6.466189999999999 51.0481 -195.413 0.0 -0.0 0.0 -0.0 -0.0 -0.0 0.0 0.0 -0.0 2.348711 19.742543 -170.817555 5.72704 19.065302 169.446286 -0.0 0.0 -0.0 -0.0 0.0 -0.0 -155.716846 -4.925325 162.135615 12.417876 17.278142 18.457799 27.743124 40.908841 -36.495315 -156.078119 58.021401 131.832873 11.509165 -11.48706 -0.622342 26.525768 -65.446276 -27.315407 -90.225558 41.072425 75.796697 36.289068 -58.501533 -6.355436 -0.057679 0.167876 0.032027 -166.353766 -4.309907 143.285572 -74.389998 -72.134083 -91.483577 14.68354 0.80702 5.865335 -139.006408 -4.914911 -136.187211 -38.953996 -49.406595 -42.109108 159.220516 -48.028485 -170.415257 164.503651 -3.538009 -157.712414 -166.076675 1.147089 -154.361199 166.393301 45.382008 -139.522083 -114.538671 -50.245352 -55.721798 132.439572 25.425599 -87.694533 26.599783 30.073055 -19.414608 -1.127225 -2.550319 7.712024 36.036059 51.723116 -29.832321 -90.868105 -81.173871 -63.158031 145.119465 0.267731 179.212447 -21.064382 6.459741 8.268335 145.173549 12.06758 141.82295 8.251436 -25.092775 13.109119 -180.0 75.749642 -0.0 -180.0 73.473292 -180.0 5.025459 -5.947284 123.870029 -1.319393 -7.283167 59.66918 -180.0 75.749642 -0.0 -180.0 73.473292 -180.0 5.864878 -4.414665 123.647879 14.394352 18.625466 49.322579
-6.49202 51.04679999999999 -195.386 0.0 -0.0 0.0 -0.0 -0.0 -0.0 0.0 0.0 -0.0 -8.133567 10.422116 -81.502261 11.496437 6.51512 81.58876 0.0 -0.0 -0.0 0.0 -0.0 -0.0 -142.973735 39.431617 147.390037 -152.876061 -8.760784 171.26332 78.083059 -69.871221 51.370984 -160.577044 53.449864 135.383803 -168.111367 -5.788954 89.870028 163.206091 -31.048932 96.37825 10.211155 -18.05077 -4.56389 -177.484672 -21.400387 105.561085 -89.835461 60.702148 81.262754 -3.220723 21.081644 1.155185 -67.6077 -72.074511 -84.373972 16.151503 -10.324887 4.771576 1.134951 3.04054 1.043633 -154.293608 27.038519 -146.674394 159.220516 -48.028485 -170.415257 -1.798516 18.086937 -22.906726 -24.904053 -79.720929 13.329601 -171.896104 -12.944398 -144.31268 0.543938 0.536215 -0.086055 -39.485476 -62.768997 16.976429 108.427673 34.160977 -91.742903 -26.069511 -41.645156 15.035139 0.571049 1.648356 -0.322148 166.045932 -3.40026 -143.271299 145.099706 -1.521107 178.650165 64.337036 -78.277385 96.32409 18.361207 -31.548691 17.575035 3.7291 -13.137769 3.335997 -180.0 75.749642 -0.0 -180.0 73.473292 -180.0 -5.864878 -4.414665 -123.647879 5.828746 -19.599706 -62.934765 -180.0 75.749642 -0.0 -180.0 73.473292 -180.0 7.26445 -6.891104 98.805537 78.037268 -74.275227 174.254323
-6.52031 51.0432 -195.333 0.0 -0.0 0.0 -0.0 -4.771896 -180.0 0.0 -4.771896 -180.0 12.076931 10.538806 104.787978 -7.087137 14.355986 -105.012253 -0.0 -0.0 0.0 -0.0 -0.0 0.0 -159.220516 -48.028485 170.415257 59.019124 -65.879433 48.521321 90.175402 72.232755 -107.565957 -156.839567 57.329489 132.450109 71.831195 -48.263725 25.791675 -55.05764 32.203394 19.652079 10.211155 -18.05077 -4.56389 10.738236 -10.197671 2.333564 -0.057679 0.167876 0.032027 -175.130298 -30.845302 144.113544 -0.000473 -0.060845 -0.019116 1.098501 -21.717791 -2.539443 3.654579 10.395436 3.321956 37.904095 81.16818 -3.930119 33.837732 -85.66573 55.255002 1.946732 6.306312 -17.604482 164.075313 -6.564674 -153.444759 -128.760344 -65.176789 -111.148199 -1.590029 -1.575931 0.222909 -4.694185 -6.967375 4.934213 77.667448 43.02965 -64.538509 90.080939 61.116213 -66.046417 -78.537123 -80.919176 -49.688177 153.238808 18.913819 -135.472555 0.014868 -1.323148 0.415899 -1.297451 -21.756571 2.289784 83.015694 -50.965153 81.415906 149.172564 23.597866 147.76583 -180.0 75.749642 -0.0 -180.0 73.473292 -180.0 5.025459 -5.947284 123.870029 -1.319393 -7.283167 59.66918 -180.0 75.749642 -0.0 -180.0 73.473292 -180.0 5.864878 -4.414665 123.647879 14.394352 18.625466 49.322579
-6.55361 51.037699999999994 -195.301 0.0 -0.0 0.0 -0.0 -0.0 -0.0 0.0 0.0 -0.0 12.086107 9.490159 98.819281 -7.514184 13.392728 -98.942746 0.0 -0.0 -0.0 0.0 -0.0 -0.0 -142.973735 39.431617 147.390037 -151.979485 -2.325519 170.955038 13.599897 1.590929 -1.446596 -17.193815 44.82634 5.4946 -0.543938 0.536215 0.086055 -154.937676 -65.921706 118.566324 -77.667448 43.02965 64.538509 -92.308334 60.872377 68.124507 -161.153703 -8.160616 143.465095 1.629642 13.094496 2.683527 -145.118942 0.185466 -179.186604 -144.609521 -5.240231 -178.50472 -154.16448 45.105972 -148.907641 3.159146 -1.129327 -3.562683 155.716846 -4.925325 -162.135615 -13.061678 15.514587 -18.16254 -179.956759 37.807271 178.820606 7.227513 22.374106 -0.654092 171.653675 -9.336187 -89.949478 86.773788 9.367082 -32.012185 8.361002 12.235891 -5.303597 168.32249 -5.370928 -112.02041 36.036059 51.723116 -29.832321 160.635595 8.60042 -144.049608 145.118942 0.185466 179.186604 145.239853 1.744219 179.404665 23.391137 -36.34947 22.493225 -1.565221 0.020391 -1.449957 -180.0 75.749642 -0.0 -180.0 73.473292 -180.0 5.025459 -5.947284 123.870029 -1.319393 -7.283167 59.66918 -180.0 75.749642 -0.0 -180.0 73.473292 -180.0 5.864878 -4.414665 123.647879 14.394352 18.625466 49.322579
-6.58171 51.032900000000005 -195.266 0.0 -0.0 0.0 -0.0 -0.0 -0.0 0.0 0.0 -0.0 -4.281274 17.687752 -130.363335 10.874171 14.661187 129.626712 -0.0 -0.0 0.0 -0.0 -0.0 0.0 -155.716846 -4.925325 162.135615 -145.645064 24.980897 157.959714 -2.713537 33.352094 2.835414 1.232903 -3.915716 0.176304 -175.329686 -12.974996 89.798138 -149.802296 6.587641 78.73717 12.216524 -21.784719 -5.120188 2.105841 1.571946 3.901721 -0.969343 2.779591 0.553338 -36.769514 54.895946 28.182647 -145.119208 0.226618 -179.199532 -21.091407 -74.018285 -52.723574 -1.149411 -2.914417 -1.065731 -145.190103 -2.050369 -140.022971 -3.268835 -26.755826 5.241683 -89.886356 -87.443715 -88.263146 174.41257 76.05523 -177.509257 4.06514 12.929014 -0.016325 -71.831195 -48.263725 -25.791675 108.669575 35.399196 -75.259713 9.376465 13.535451 -6.014134 97.175977 49.962831 -66.464277 89.835461 60.702148 -81.262754 146.146847 38.637815 -134.851211 145.118942 0.185466 179.186604 139.557095 79.288143 -164.283812 -6.227694 18.789635 -5.573717 1.141305 -2.198347 1.633358 -180.0 75.749642 -0.0 -180.0 73.473292 -180.0 5.025459 -5.947284 123.870029 -1.319393 -7.283167 59.66918 -180.0 75.749642 -0.0 -180.0 73.473292 -180.0 5.864878 -4.414665 123.647879 14.394352 18.625466 49.322579
-6.608710000000001 51.02920000000001 -195.232 0.0 -0.0 0.0 -0.0 -0.0 -0.0 0.0 0.0 -0.0 -7.417427 6.176288 -56.922404 9.210072 2.862964 57.092487 0.0 -0.0 -0.0 0.0 -0.0 -0.0 -153.049818 10.023319 158.667788 22.40662 -8.787642 13.325827 -0.45962 -11.715638 -33.405908 162.965913 -34.909292 139.841708 3.024903 -3.006688 -0.387008 -42.426271 28.41961 36.797006 12.216524 -21.784719 -5.120188 -78.408686 44.340977 54.703299 -160.826363 -7.141801 143.31627 -54.125063 62.234533 50.564895 -0.021291 -1.725169 -0.542387 0.075455 0.849084 0.430153 -86.000836 -50.498128 -84.371009 3.655249 -0.295952 1.336712 155.61387 -4.23638 -161.991154 150.077694 13.216458 -160.323297 88.506174 73.637738 -74.493364 -45.518597 -64.549522 -32.423454 166.631339 -4.304864 -89.77151 77.345121 3.303671 -27.079832 -159.641557 -69.973343 -102.396332 -4.494351 21.530365 -6.606195 -68.983989 -80.15399 -40.578188 15.911903 35.249444 -14.395106 0.014868 -1.323148 0.415899 1.019133 12.336093 -1.929554 103.687757 -45.141178 101.853968 -11.614396 26.026066 -7.318513 -180.0 75.749642 -0.0 -180.0 73.473292 -180.0 5.025459 -5.947284 123.870029 -1.319393 -7.283167 59.66918 -180.0 75.749642 -0.0 -180.0 73.473292 -180.0 5.864878 -4.414665 123.647879 14.394352 18.625466 49.322579
